HIERARCHY
ROOT Hips
{
 OFFSET 0.000000 0.000000 0.000000
 CHANNELS 6 Xposition Yposition Zposition Yrotation Xrotation Zrotation
 JOINT Chest
 {
  OFFSET 0.000000 9.585900 0.002600
  CHANNELS 3 Yrotation Xrotation Zrotation
  JOINT Chest2
  {
   OFFSET 0.000000 9.601200 -0.005300
   CHANNELS 3 Yrotation Xrotation Zrotation
   JOINT Chest3
   {
    OFFSET 0.000000 9.561800 0.000000
    CHANNELS 3 Yrotation Xrotation Zrotation
    JOINT Chest4
    {
     OFFSET 0.000000 9.552100 0.000000
     CHANNELS 3 Yrotation Xrotation Zrotation
     JOINT Neck
     {
      OFFSET 0.000000 14.453000 0.000000
      CHANNELS 3 Yrotation Xrotation Zrotation
      JOINT Head
      {
       OFFSET 0.000000 8.936500 -0.011300
       CHANNELS 3 Yrotation Xrotation Zrotation
       End Site
       {
        OFFSET 0.000000 17.073600 -0.006000
       }
      }
     }
     JOINT RightCollar
     {
      OFFSET -2.921100 9.558500 0.000000
      CHANNELS 3 Yrotation Xrotation Zrotation
      JOINT RightShoulder
      {
       OFFSET -13.519700 0.000000 0.000000
       CHANNELS 3 Yrotation Xrotation Zrotation
       JOINT RightElbow
       {
        OFFSET 0.000000 -29.696600 0.000000
        CHANNELS 3 Yrotation Xrotation Zrotation
        JOINT RightWrist
        {
         OFFSET 0.000000 -24.004700 0.000000
         CHANNELS 3 Yrotation Xrotation Zrotation
         End Site
         {
          OFFSET 0.000000 -17.728500 0.000000
         }
        }
       }
      }
     }
     JOINT LeftCollar
     {
      OFFSET 2.921100 9.558500 0.000000
      CHANNELS 3 Yrotation Xrotation Zrotation
      JOINT LeftShoulder
      {
       OFFSET 13.519700 0.000000 0.000000
       CHANNELS 3 Yrotation Xrotation Zrotation
       JOINT LeftElbow
       {
        OFFSET 0.000000 -29.696600 0.000000
        CHANNELS 3 Yrotation Xrotation Zrotation
        JOINT LeftWrist
        {
         OFFSET 0.000000 -24.004700 0.000000
         CHANNELS 3 Yrotation Xrotation Zrotation
         End Site
         {
          OFFSET 0.000000 -17.728500 0.000000
         }
        }
       }
      }
     }
    }
   }
  }
 }
 JOINT RightHip
 {
  OFFSET -7.771700 -0.012900 -0.001300
  CHANNELS 3 Yrotation Xrotation Zrotation
  JOINT RightKnee
  {
   OFFSET 0.000000 -40.869800 0.001200
   CHANNELS 3 Yrotation Xrotation Zrotation
   JOINT RightAnkle
   {
    OFFSET 0.000000 -39.717900 0.002100
    CHANNELS 3 Yrotation Xrotation Zrotation
    JOINT RightToe
    {
     OFFSET 0.000000 -4.965400 11.033500
     CHANNELS 3 Yrotation Xrotation Zrotation
     End Site
     {
      OFFSET 0.000000 -1.423100 5.872300
     }
    }
   }
  }
 }
 JOINT LeftHip
 {
  OFFSET 7.771700 -0.012900 -0.001300
  CHANNELS 3 Yrotation Xrotation Zrotation
  JOINT LeftKnee
  {
   OFFSET 0.000000 -40.869800 0.001200
   CHANNELS 3 Yrotation Xrotation Zrotation
   JOINT LeftAnkle
   {
    OFFSET 0.000000 -39.717900 0.002100
    CHANNELS 3 Yrotation Xrotation Zrotation
    JOINT LeftToe
    {
     OFFSET 0.000000 -4.965400 11.033500
     CHANNELS 3 Yrotation Xrotation Zrotation
     End Site
     {
      OFFSET 0.000000 -1.423100 5.872300
     }
    }
   }
  }
 }
}
MOTION
Frames: 12
Frame Time: 0.008333
0.000000 85.388000 0.000000 0.000000 -5.767877 0.000000 0.000000 11.653817 0.000000 0.000000 -5.885947 0.000000 0.000000 -0.000000 0.000000 0.000000 -0.000000 0.000000 0.000000 12.528835 0.000000 0.000000 0.711642 0.000000 0.000000 -0.000000 0.000000 0.000000 0.000000 -90.000000 0.000000 -2.309062 0.000000 0.000000 2.309062 0.000000 0.000000 -0.000000 0.000000 0.000000 -0.000000 90.000000 0.000000 -2.309062 0.000000 0.000000 2.309062 0.000000 0.000000 8.520406 0.000000 0.000000 1.905762 0.000000 -0.000000 -4.658285 0.000000 0.000000 -0.000000 0.000000 0.000000 8.520406 0.000000 0.000000 1.905762 0.000000 -0.000000 -4.658285 0.000000 0.000000 -0.000000 0.000000
-80.661358 55.771479 -42.675363 -172.667950 -11.827490 -0.881079 -1.087478 14.609109 0.275102 -0.073814 1.325959 0.057195 -0.142504 2.218314 0.091717 -0.804844 13.154908 0.469789 -0.438349 15.811262 4.077230 -1.384544 -9.047068 4.415537 0.592895 0.624579 0.895799 -1.587848 -5.630044 -6.013890 -73.130077 -47.519933 106.641565 -13.728738 19.148823 5.293054 -5.991565 -1.113922 1.330493 3.625672 -11.579080 5.758072 58.477349 -45.023108 -99.883829 13.124373 -8.974869 9.466498 -3.854051 -63.376726 8.069329 -29.429703 86.031434 -34.103197 -10.879860 -18.516036 13.603449 0.075586 0.084569 -0.112952 10.792641 -59.985480 -13.498201 89.916280 70.554421 91.387554 1.325535 -19.200726 -3.156963 -0.041194 0.196196 -0.036888
-80.661633 55.769848 -42.675053 -172.674309 -11.835814 -0.881627 -1.091013 14.609135 0.273303 -0.075214 1.323492 0.056102 -0.142587 2.220263 0.091699 -0.813547 13.157403 0.469360 -0.406513 15.678070 4.136599 -1.374669 -9.191008 4.474139 0.616197 0.594397 0.897514 -1.583201 -5.634854 -6.029254 -73.137532 -47.508993 106.636583 -13.725719 19.152431 5.307102 -5.979762 -1.132244 1.338941 3.601038 -11.517872 5.754383 58.481209 -45.036832 -99.900964 13.119839 -8.983297 9.458487 -3.845367 -63.370178 8.066669 -29.468122 86.032382 -34.134273 -10.890359 -18.529107 13.602295 0.071594 0.063318 -0.082565 10.788434 -59.981527 -13.497145 89.920036 70.548258 91.396335 1.327357 -19.196234 -3.160253 -0.049552 0.193908 -0.030932
-80.661089 55.767943 -42.675136 -172.682314 -11.844370 -0.887073 -1.088262 14.613364 0.279452 -0.078675 1.320209 0.053222 -0.151155 2.218284 0.095177 -0.804483 13.164636 0.470708 -0.384425 15.545954 4.194924 -1.365066 -9.329600 4.531873 0.629336 0.572778 0.893633 -1.580797 -5.686905 -6.044877 -73.105393 -47.486338 106.581907 -13.723779 19.142782 5.321926 -5.971924 -1.134631 1.333989 3.571519 -11.499467 5.763822 58.462240 -45.041533 -99.897332 13.107969 -8.980119 9.449458 -3.851611 -63.362632 8.067040 -29.617577 86.029428 -34.276852 -10.822791 -18.549482 13.587441 0.076256 0.044314 -0.058177 10.777384 -59.978910 -13.485791 89.925377 70.540450 91.406185 1.324547 -19.191503 -3.149483 -0.047401 0.192078 -0.040833
-80.658367 55.766716 -42.679916 -172.725495 -11.877414 -0.901874 -1.041689 14.645036 0.303387 -0.085196 1.317462 0.055229 -0.151019 2.217907 0.096160 -0.807501 13.163995 0.474348 -0.361175 15.419085 4.250561 -1.355504 -9.462305 4.588819 0.645686 0.560722 0.883226 -1.585842 -5.706441 -6.043990 -73.108511 -47.490497 106.574623 -13.702607 19.105357 5.345637 -5.966728 -1.146453 1.323625 3.548435 -11.482011 5.778671 58.462733 -45.035805 -99.893158 13.101486 -8.866870 9.402333 -3.854159 -63.329027 8.117764 -29.881536 86.022136 -34.533226 -10.819042 -18.583833 13.595643 0.093935 0.050890 -0.047510 10.750662 -59.956817 -13.439495 89.946227 70.516486 91.434489 1.341233 -19.154900 -3.157322 -0.057940 0.156060 -0.047599
-80.658453 55.764551 -42.680970 -172.733636 -11.885861 -0.904719 -1.040363 14.650401 0.308675 -0.092303 1.313335 0.058484 -0.143208 2.221312 0.093067 -0.810284 13.160900 0.478455 -0.339247 15.297087 4.308024 -1.345770 -9.589706 4.645992 0.659588 0.549190 0.873300 -1.589046 -5.722234 -6.040697 -73.092664 -47.491216 106.546440 -13.697789 19.083940 5.350779 -5.972680 -1.155991 1.321021 3.536843 -11.474499 5.787543 58.410324 -45.027986 -99.868702 13.092567 -8.857524 9.397778 -3.856911 -63.321541 8.133219 -30.189727 86.012546 -34.832297 -10.857927 -18.598145 13.605957 0.052629 0.019484 -0.024062 10.740797 -59.950705 -13.431029 89.950032 70.510905 91.448816 1.338931 -19.158341 -3.171841 -0.048473 0.160053 -0.038556
-80.658892 55.762464 -42.682732 -172.744931 -11.895322 -0.906029 -1.042881 14.649409 0.315492 -0.080705 1.322508 0.052505 -0.143251 2.221183 0.093216 -0.816401 13.154426 0.484878 -0.317224 15.179865 4.366494 -1.336330 -9.711903 4.704426 0.671917 0.536881 0.864247 -1.588218 -5.733629 -6.037521 -73.083800 -47.493625 106.522384 -13.696038 19.061901 5.350103 -5.972461 -1.171519 1.318399 3.519501 -11.469457 5.795225 58.350969 -45.021266 -99.841916 13.087377 -8.852094 9.400344 -3.857178 -63.314679 8.144958 -30.454859 86.007279 -35.093125 -10.866237 -18.604643 13.608593 0.045571 0.014420 -0.018458 10.732485 -59.946092 -13.431374 89.965347 70.497064 91.474546 1.348788 -19.158718 -3.181556 -0.048506 0.160717 -0.039392
-80.661534 55.760446 -42.684772 -172.748770 -11.905052 -0.896950 -1.044059 14.652044 0.308676 -0.083077 1.323940 0.053748 -0.144006 2.220705 0.093556 -0.815729 13.156052 0.483856 -0.295959 15.063188 4.431172 -1.328716 -9.828479 4.765574 0.683857 0.521671 0.859987 -1.586942 -5.743057 -6.033865 -73.104184 -47.500568 106.522549 -13.706209 19.052647 5.336438 -5.982781 -1.221530 1.325480 3.505212 -11.441416 5.799630 58.304495 -45.013455 -99.817968 13.088326 -8.866488 9.418600 -3.857819 -63.305186 8.131883 -30.623499 86.005163 -35.258636 -10.859812 -18.624319 13.619370 0.051304 0.018571 -0.027528 10.736230 -59.939294 -13.455947 89.981188 70.478037 91.493977 1.359016 -19.153893 -3.177969 -0.053749 0.156290 -0.051598
-80.661281 55.758784 -42.688193 -172.759444 -11.919161 -0.905673 -1.030205 14.658738 0.321042 -0.086166 1.317924 0.057061 -0.144391 2.217957 0.094676 -0.817884 13.167400 0.481632 -0.273246 14.950964 4.496375 -1.324408 -9.940413 4.831481 0.699288 0.507315 0.853531 -1.586208 -5.749507 -6.030659 -73.118280 -47.505382 106.515023 -13.714221 19.045027 5.324518 -5.986223 -1.245814 1.320762 3.477066 -11.447663 5.815216 58.261646 -45.001450 -99.792828 13.083820 -8.833679 9.411652 -3.878303 -63.287745 8.149885 -30.722031 86.002186 -35.361437 -10.784148 -18.642895 13.623120 0.058965 0.005735 -0.028556 10.710496 -59.932575 -13.436431 90.014313 70.465465 91.537393 1.367971 -19.156223 -3.190931 -0.051849 0.153987 -0.053949
-80.662822 55.757172 -42.691074 -172.763143 -11.930407 -0.905648 -1.025438 14.666219 0.321968 -0.086206 1.319798 0.057424 -0.144294 2.213736 0.094560 -0.814816 13.164745 0.488372 -0.258690 14.845383 4.560136 -1.322151 -10.048673 4.902389 0.701662 0.506219 0.845886 -1.575131 -5.762269 -6.031433 -73.132523 -47.499832 106.509657 -13.721297 19.049359 5.309319 -5.993687 -1.252700 1.312384 3.441011 -11.472998 5.833566 58.221055 -44.987594 -99.766452 13.081106 -8.819102 9.414639 -3.878705 -63.275144 8.150189 -30.920403 85.993929 -35.552153 -10.787160 -18.652506 13.629543 0.044367 -0.013013 -0.016797 10.677178 -59.931375 -13.425457 90.059147 70.444014 91.576111 1.382222 -19.151465 -3.196128 -0.062288 0.147691 -0.057944
-80.663204 55.755600 -42.693226 -172.771907 -11.936574 -0.911446 -1.014738 14.668571 0.329248 -0.086124 1.315735 0.057153 -0.143627 2.212660 0.094747 -0.814873 13.164357 0.490099 -0.239373 14.743500 4.630086 -1.320903 -10.153473 4.977060 0.706673 0.505630 0.843496 -1.570593 -5.763063 -6.032119 -73.155438 -47.495227 106.521645 -13.721661 19.035920 5.290342 -5.997948 -1.258770 1.307419 3.422805 -11.478818 5.845957 58.182651 -44.991023 -99.766433 13.086923 -8.847477 9.448681 -3.904580 -63.268327 8.177617 -31.191021 85.977847 -35.813922 -10.785292 -18.645442 13.623327 0.057113 -0.028076 -0.006998 10.661985 -59.929449 -13.405698 90.080321 70.439855 91.601038 1.377132 -19.155354 -3.201714 -0.054291 0.149446 -0.053123
-80.663944 55.754435 -42.696055 -172.781715 -11.947989 -0.915561 -1.003177 14.669868 0.334801 -0.085392 1.310732 0.056680 -0.143535 2.219135 0.095334 -0.812525 13.162256 0.490043 -0.220406 14.647170 4.704550 -1.322327 -10.255541 5.056107 0.712880 0.497747 0.840161 -1.567645 -5.754901 -6.029859 -73.182489 -47.498160 106.536965 -13.738814 19.027990 5.268249 -6.009203 -1.284356 1.309976 3.407147 -11.464317 5.854143 58.153263 -44.997324 -99.773167 13.077122 -8.792131 9.389103 -3.922221 -63.253851 8.198934 -31.237739 85.969885 -35.860212 -10.772197 -18.641118 13.615428 0.054599 -0.036197 -0.003403 10.648894 -59.921113 -13.386870 90.097297 70.434838 91.620566 1.373544 -19.158628 -3.207140 -0.047895 0.152345 -0.043944
